<?xml version="1.0" standalone="no"?>
<!DOCTYPE svg PUBLIC "-//W3C//DTD SVG 20010904//EN"
 "http://www.w3.org/TR/2001/REC-SVG-20010904/DTD/svg10.dtd">
<svg version="1.0" xmlns="http://www.w3.org/2000/svg"
 width="895.000000pt" height="144.000000pt" viewBox="0 0 895.000000 144.000000"
 preserveAspectRatio="xMidYMid meet">
<metadata>
Created by potrace 1.15, written by Peter Selinger 2001-2017
</metadata>
<g transform="translate(0.000000,144.000000) scale(0.100000,-0.100000)"
fill="#ffffff" stroke="none">
<path d="M1005 1361 c-38 -9 -102 -34 -140 -55 l-71 -38 -73 36 -73 37 -39
-27 c-21 -14 -44 -33 -50 -40 -15 -19 -35 -18 -95 5 l-50 20 -30 -29 c-69 -66
-87 -100 -79 -149 4 -23 1 -46 -7 -61 -26 -50 -29 -52 -44 -39 -12 10 -19 8
-38 -10 -26 -25 -66 -100 -66 -126 0 -20 31 -75 43 -75 4 0 4 -8 -1 -17 -16
-32 -75 -207 -88 -263 -18 -76 -18 -164 1 -180 8 -6 32 -14 55 -17 35 -5 40
-3 39 13 -1 11 -1 27 -1 38 2 20 -11 20 281 0 183 -13 266 24 389 173 27 34
41 43 66 43 52 0 121 -28 152 -63 16 -17 20 -24 9 -15 -34 28 -108 58 -146 58
-30 0 -41 -6 -64 -36 l-28 -36 23 -40 c27 -49 24 -125 -9 -179 -30 -48 -27
-74 12 -102 48 -37 97 -48 189 -46 46 1 94 1 108 1 14 0 52 -10 85 -22 38 -14
93 -24 151 -27 148 -9 259 33 386 146 111 98 117 221 15 323 -9 9 -16 53 -20
133 -3 66 -10 136 -15 155 -5 19 -15 60 -22 90 -7 30 -26 82 -43 115 -82 165
-209 263 -396 305 -110 24 -221 25 -316 1z m368 -84 c85 -27 179 -88 228 -147
91 -109 128 -221 136 -411 6 -134 6 -136 -21 -181 -27 -47 -115 -142 -123
-134 -3 2 -16 -5 -29 -17 -57 -49 -193 -64 -261 -28 -63 34 -70 43 -77 105
-17 133 -92 233 -191 254 l-35 7 23 27 23 26 52 -30 c56 -32 83 -32 119 -1 55
49 52 102 -9 169 -22 24 -38 44 -34 44 4 0 -1 14 -9 30 -16 30 -56 73 -104
111 -14 11 -20 23 -15 27 96 81 167 122 229 133 32 5 23 7 -40 8 -97 1 -144
-9 -229 -50 -79 -38 -105 -34 -45 6 116 77 272 96 412 52z m-558 -84 c147 -72
275 -172 275 -213 0 -9 -11 -34 -25 -54 -14 -20 -25 -40 -25 -44 0 -12 -172
-236 -237 -309 -34 -38 -80 -82 -104 -99 -40 -27 -48 -29 -143 -29 -56 1 -144
9 -198 19 -53 10 -119 16 -147 15 -42 -3 -51 -1 -51 13 0 25 11 49 20 43 5 -3
6 3 3 13 -5 20 35 117 67 162 19 26 23 28 58 18 20 -5 88 -30 150 -54 98 -39
122 -45 175 -42 l62 3 30 61 c37 74 65 138 104 231 l29 71 -33 36 c-18 20 -62
59 -97 86 -35 28 -68 54 -73 58 -6 5 -18 13 -28 18 -17 10 -17 12 5 37 29 33
40 30 183 -40z m-351 25 c-4 -7 -3 -8 5 -4 10 6 117 -46 131 -64 3 -3 30 -23
60 -43 65 -43 130 -102 130 -117 0 -23 -126 -281 -142 -291 -14 -9 -112 11
-120 24 -4 7 -8 9 -8 5 0 -7 -51 19 -190 96 -36 20 -75 42 -87 48 -28 14 -29
29 -4 59 l19 23 43 -28 c24 -16 56 -37 70 -47 52 -35 172 -90 185 -85 16 6 94
158 94 184 0 28 -61 73 -182 133 -46 23 -85 43 -87 45 -10 9 52 74 70 74 13 0
18 -4 13 -12z m1350 -719 c69 -82 -16 -218 -189 -304 -56 -28 -68 -30 -170
-30 -187 0 -270 37 -273 122 l-2 41 48 -26 c43 -25 57 -27 152 -27 98 0 110 2
170 32 71 35 154 111 198 180 15 23 30 43 34 43 3 0 18 -14 32 -31z"/>
<path d="M1520 741 c-14 -11 -58 -25 -103 -32 -84 -14 -134 -46 -122 -78 4 -9
18 -63 32 -121 14 -58 27 -111 29 -117 9 -32 161 -1 241 50 61 38 77 67 68
119 -11 63 -52 180 -67 189 -21 14 -51 10 -78 -10z m94 -181 c1 -45 1 -45 -54
-72 -32 -16 -75 -29 -104 -30 l-48 -3 -17 65 c-10 36 -21 74 -24 85 -6 19 2
23 87 44 52 13 101 28 108 32 18 12 51 -64 52 -121z"/>
<path d="M1760 429 c-19 -34 -57 -79 -85 -102 -27 -23 -52 -44 -55 -47 -39
-39 -71 -56 -147 -76 l-88 -23 68 -1 c126 0 246 59 328 163 41 52 51 98 27
130 -11 14 -17 8 -48 -44z"/>
<path d="M4641 1192 c-6 -11 -8 -22 -5 -24 10 -10 5 -341 -6 -352 -13 -13 -13
-119 1 -133 7 -7 10 -61 9 -149 -3 -171 -1 -197 9 -207 4 -4 35 -7 67 -5 l59
3 2 175 2 175 91 5 c76 4 94 8 106 24 11 16 14 66 14 240 0 122 -4 226 -8 232
-16 25 -54 32 -189 33 -131 2 -143 1 -152 -17z m209 -244 l0 -138 -39 0 c-25
0 -41 5 -45 15 -3 8 -1 15 4 15 6 0 10 49 10 118 0 65 3 122 7 125 3 4 19 6
35 5 l28 -2 0 -138z"/>
<path d="M5968 1203 c-69 -3 -79 -7 -98 -30 -19 -25 -20 -38 -19 -212 1 -102
6 -194 10 -203 6 -10 5 -19 -1 -23 -14 -9 -13 -347 1 -379 16 -35 62 -47 171
-45 103 2 144 12 158 39 15 29 13 423 -2 439 -10 11 -10 13 0 7 8 -5 12 2 12
22 l0 29 -74 1 c-68 1 -74 0 -80 -21 -11 -43 -7 -97 9 -103 12 -5 15 -27 15
-109 0 -60 4 -107 10 -110 6 -4 7 -12 3 -18 -4 -7 -8 -15 -9 -19 -1 -5 -2 -11
-3 -15 -5 -27 -18 -33 -49 -22 -30 10 -32 14 -32 62 0 29 -1 175 -3 325 l-2
272 30 -1 c17 -1 37 1 46 5 12 5 16 -2 18 -41 3 -58 22 -83 50 -66 10 6 28 9
40 6 18 -4 21 -1 23 23 2 42 1 64 -6 104 -5 26 -4 30 3 15 10 -20 10 -20 10 0
1 11 -6 31 -15 43 -12 18 -25 23 -57 22 -23 -1 -51 0 -62 2 -11 3 -55 3 -97 1z"/>
<path d="M6508 1202 l-68 -3 0 -179 c0 -127 3 -180 11 -180 8 0 8 -4 0 -14 -8
-9 -11 -87 -9 -262 l3 -249 119 0 119 0 3 63 4 62 -48 1 c-26 1 -49 1 -52 1
-3 0 -5 147 -5 326 0 180 -2 352 -5 382 l-5 55 -67 -3z"/>
<path d="M7618 1203 c-69 -3 -79 -7 -98 -30 -19 -25 -20 -38 -19 -212 1 -102
6 -194 10 -203 6 -10 5 -19 -1 -23 -14 -9 -13 -347 1 -379 16 -35 62 -47 171
-45 103 2 144 12 158 39 15 29 13 423 -2 439 -10 11 -10 13 0 7 8 -5 12 2 12
22 l0 29 -74 1 c-68 1 -74 0 -80 -21 -11 -43 -7 -97 9 -103 12 -5 15 -27 15
-109 0 -60 4 -107 10 -110 6 -4 7 -12 3 -18 -4 -7 -8 -15 -9 -19 -1 -5 -2 -11
-3 -15 -5 -27 -18 -33 -49 -22 -30 10 -32 14 -32 62 0 29 -1 175 -3 325 l-2
272 30 -1 c17 -1 37 1 46 5 12 5 16 -2 18 -41 3 -58 22 -83 50 -66 10 6 28 9
40 6 18 -4 21 -1 23 23 2 42 1 64 -6 104 -5 26 -4 30 3 15 10 -20 10 -20 10 0
1 11 -6 31 -15 43 -12 18 -25 23 -57 22 -23 -1 -51 0 -62 2 -11 3 -55 3 -97 1z"/>
<path d="M2400 1190 c-7 -50 -6 -866 0 -870 4 -3 35 -4 68 -2 l59 4 6 66 c4
54 3 454 -2 748 l-1 51 -52 6 c-33 4 -55 3 -59 -4 -4 -8 -8 -7 -12 2 -4 11 -6
11 -7 -1z"/>
<path d="M2587 1185 c-6 -18 1 -854 8 -865 3 -5 35 -10 70 -10 l65 0 2 197 3
197 60 -197 60 -197 46 0 c84 0 79 -17 79 252 0 171 -3 237 -11 232 -8 -5 -8
-1 0 13 6 12 10 92 10 201 0 164 -6 211 -24 183 -4 -7 -15 -7 -31 -1 -14 6
-39 10 -55 10 l-29 0 3 -190 c2 -104 0 -190 -3 -190 -7 0 -100 277 -100 298 0
6 -5 12 -11 12 -5 0 -8 4 -5 9 4 5 2 21 -4 36 -9 25 -13 26 -70 23 -33 -1 -61
-7 -63 -13z"/>
<path d="M3035 1181 c-3 -9 -4 -207 -3 -439 3 -365 5 -423 18 -427 8 -2 71 -4
140 -4 148 0 185 12 193 62 11 62 9 269 -3 262 -5 -3 -10 -2 -10 4 0 5 -3 18
-6 28 -5 16 -4 16 10 -1 15 -18 16 1 16 231 0 323 17 297 -194 300 -140 2
-156 0 -161 -16z m203 -100 c16 -9 18 -37 17 -333 l0 -323 -24 -3 c-15 -3 -21
0 -16 7 3 7 3 11 -2 10 -39 -7 -38 -12 -36 318 1 297 2 318 20 324 24 10 22
10 41 0z"/>
<path d="M3440 1190 c-7 -50 -6 -866 0 -870 4 -3 35 -4 68 -2 l59 4 6 66 c4
54 3 454 -2 748 l-1 51 -52 6 c-33 4 -55 3 -59 -4 -4 -8 -8 -7 -12 2 -4 11 -6
11 -7 -1z"/>
<path d="M3736 1184 c-9 -8 -17 -29 -17 -45 -2 -41 -4 -58 -13 -109 -5 -25
-10 -58 -12 -75 -2 -16 -15 -109 -29 -205 -14 -96 -28 -193 -30 -215 -3 -22
-10 -64 -15 -94 -6 -30 -10 -69 -10 -87 0 -31 2 -32 49 -39 77 -10 88 0 97 94
6 70 9 80 28 83 48 9 54 1 61 -78 4 -41 13 -81 20 -88 8 -7 30 -12 52 -10 21
2 44 3 52 3 8 1 11 8 8 21 -3 12 -1 18 5 14 13 -8 5 64 -32 306 -16 102 -32
203 -35 225 -6 37 -29 186 -41 265 -3 19 -8 38 -11 43 -9 14 -111 8 -127 -9z"/>
<path d="M4017 1185 c-6 -18 1 -854 8 -865 3 -5 35 -10 70 -10 l65 0 2 197 3
197 60 -197 60 -197 46 0 c84 0 79 -17 79 252 0 171 -3 237 -11 232 -8 -5 -8
-1 0 13 6 12 10 92 10 201 0 164 -6 211 -24 183 -4 -7 -15 -7 -31 -1 -14 6
-39 10 -55 10 l-29 0 3 -190 c2 -104 0 -190 -3 -190 -7 0 -100 277 -100 298 0
6 -5 12 -11 12 -5 0 -8 4 -5 9 4 5 2 21 -4 36 -9 25 -13 26 -70 23 -33 -1 -61
-7 -63 -13z"/>
<path d="M5040 1151 c0 -25 -2 -203 -5 -396 -2 -192 -1 -365 2 -383 3 -18 14
-37 25 -43 11 -6 83 -12 160 -12 185 -3 173 -17 183 230 9 259 4 626 -9 635
-6 4 -36 8 -68 8 l-56 0 -1 -302 c-1 -167 -1 -338 -1 -380 l0 -78 -26 11 c-15
5 -34 7 -43 4 -26 -8 -45 10 -37 36 12 39 17 319 6 319 -6 0 -10 14 -10 31 0
16 4 28 9 25 8 -5 3 324 -5 333 -1 2 -30 4 -63 6 l-61 3 0 -47z"/>
<path d="M5460 1053 c0 -95 4 -143 10 -133 5 8 13 11 17 6 4 -4 1 -13 -8 -19
-29 -22 -47 -132 -30 -186 6 -20 12 -119 14 -221 l2 -185 143 1 c197 1 186
-12 190 232 2 175 1 188 -18 214 -19 26 -19 30 -5 52 13 19 15 54 13 197 -3
163 -4 174 -22 171 -11 -2 -15 1 -11 7 4 8 -40 11 -144 11 l-151 0 0 -147z
m202 -78 c0 -58 1 -111 2 -117 1 -8 -14 -14 -35 -16 l-37 -3 -4 75 c-2 41 -2
95 0 120 4 45 5 46 38 46 l34 0 2 -105z m-7 -257 c8 -23 10 -288 3 -289 -27
-5 -65 -3 -62 3 2 3 1 8 -3 10 -5 1 -7 63 -5 136 3 126 5 134 25 142 31 12 37
12 42 -2z"/>
<path d="M6745 1194 c-6 -2 -9 -66 -7 -170 2 -120 0 -170 -9 -181 -14 -17 -13
-126 2 -131 5 -2 9 -86 9 -193 0 -171 2 -190 18 -197 9 -4 76 -7 147 -7 99 0
129 3 128 13 -2 6 1 12 7 12 10 0 5 73 -6 91 -3 6 -35 9 -73 8 -38 -1 -72 0
-77 3 -5 4 -8 65 -6 137 l3 131 80 0 80 0 -3 63 -3 62 -78 5 -78 5 -2 113 -2
112 35 1 c19 1 59 0 88 -1 l53 -2 -3 64 -3 63 -145 2 c-80 1 -149 0 -155 -3z"/>
<path d="M7216 1184 c-9 -8 -17 -29 -17 -45 -2 -41 -4 -58 -13 -109 -5 -25
-10 -58 -12 -75 -2 -16 -15 -109 -29 -205 -14 -96 -28 -193 -30 -215 -3 -22
-10 -64 -15 -94 -6 -30 -10 -69 -10 -87 0 -31 2 -32 49 -39 77 -10 88 0 97 94
6 70 9 80 28 83 48 9 54 1 61 -78 4 -41 13 -81 20 -88 8 -7 30 -12 52 -10 21
2 44 3 52 3 8 1 11 8 8 21 -3 12 -1 18 5 14 13 -8 5 64 -32 306 -16 102 -32
203 -35 225 -6 37 -29 186 -41 265 -3 19 -8 38 -11 43 -9 14 -111 8 -127 -9z"/>
<path d="M7910 1151 c0 -25 -2 -203 -5 -396 -2 -192 -1 -365 2 -383 3 -18 14
-37 25 -43 11 -6 83 -12 160 -12 185 -3 173 -17 183 230 9 259 4 626 -9 635
-6 4 -36 8 -68 8 l-56 0 -1 -302 c-1 -167 -1 -338 -1 -380 l0 -78 -26 11 c-15
5 -34 7 -43 4 -26 -8 -45 10 -37 36 12 39 17 319 6 319 -6 0 -10 14 -10 31 0
16 4 28 9 25 8 -5 3 324 -5 333 -1 2 -30 4 -63 6 l-61 3 0 -47z"/>
<path d="M8335 1194 c-6 -2 -9 -66 -7 -170 2 -120 0 -170 -9 -181 -14 -17 -13
-126 2 -131 5 -2 9 -86 9 -193 0 -171 2 -190 18 -197 9 -4 76 -7 147 -7 99 0
129 3 128 13 -2 6 1 12 7 12 10 0 5 73 -6 91 -3 6 -35 9 -73 8 -38 -1 -72 0
-77 3 -5 4 -8 65 -6 137 l3 131 80 0 80 0 -3 63 -3 62 -78 5 -78 5 -2 113 -2
112 35 1 c19 1 59 0 88 -1 l53 -2 -3 64 -3 63 -145 2 c-80 1 -149 0 -155 -3z"/>
</g>
</svg>
